<svg height="511pt" viewBox="0 0 511.99951 511" width="511pt" xmlns="http://www.w3.org/2000/svg"><path d="m507.390625 120.496094c-6.65625-29.753906-20.214844-55.023438-40.300781-75.113282-29.367188-29.363281-70.238282-44.882812-118.199219-44.882812-78.546875 0-167.199219 41.761719-237.152344 111.714844-55.625 55.621094-93.523437 122.59375-106.71875 188.574218-6.550781 32.753907-6.691406 63.59375-.410156 91.664063 6.652344 29.753906 20.214844 55.023437 40.300781 75.113281 29.363282 29.363282 70.234375 44.882813 118.199219 44.886719h.015625c78.535156 0 167.183594-41.761719 237.136719-111.714844 55.625-55.621093 93.523437-122.59375 106.722656-188.574219 6.546875-32.753906 6.6875-63.597656.40625-91.667968zm0 0" fill="#ff9f00"/><path d="m507.390625 120.496094c-6.65625-29.75-20.214844-55.019532-40.300781-75.109375l-422.179688 422.179687c29.363282 29.363282 70.234375 44.882813 118.199219 44.886719h.011719c78.539062 0 167.1875-41.761719 237.140625-111.714844 55.621093-55.621093 93.523437-122.59375 106.71875-188.574219 6.550781-32.753906 6.691406-63.597656.410156-91.667968zm0 0" fill="#ff8300"/><g fill="#ffd400"><path d="m256 80.824219c-21.558594 0-39.097656 17.539062-39.097656 39.097656v273.109375c0 21.558594 17.539062 39.097656 39.097656 39.097656s39.09375-17.539062 39.09375-39.097656v-273.109375c0-21.558594-17.535156-39.097656-39.09375-39.097656zm0 0"/><path d="m143.542969 177.214844c-21.558594 0-39.097657 17.539062-39.097657 39.097656v192.785156c0 21.558594 17.539063 39.097656 39.097657 39.097656 21.558593 0 39.097656-17.539062 39.097656-39.097656v-192.785156c-.003906-21.558594-17.539063-39.097656-39.097656-39.097656zm0 0"/><path d="m368.457031 64.757812c-21.558593 0-39.097656 17.539063-39.097656 39.097657v192.785156c0 21.558594 17.539063 39.09375 39.097656 39.09375 21.558594 0 39.09375-17.535156 39.09375-39.09375v-192.785156c0-21.558594-17.535156-39.097657-39.09375-39.097657zm0 0"/></g><path d="m216.902344 393.027344c0 21.5625 17.539062 39.101562 39.097656 39.101562s39.09375-17.539062 39.09375-39.101562v-175.648438l-78.191406 78.195313zm0 0" fill="#ffb229"/><path d="m104.445312 409.097656c0 21.558594 17.539063 39.097656 39.097657 39.097656 21.558593 0 39.097656-17.539062 39.097656-39.097656v-79.261718l-78.195313 78.195312zm0 0" fill="#ffb229"/><path d="m329.359375 183.117188v113.523437c0 21.558594 17.539063 39.09375 39.097656 39.09375 21.558594 0 39.09375-17.535156 39.09375-39.09375v-191.71875zm0 0" fill="#ffb229"/></svg>